<?xml version="1.0" ?>
<svg height="512px" style="enable-background:new 0 0 512 512;" version="1.1" viewBox="0 0 512 512" width="512px" xml:space="preserve" xmlns="http://www.w3.org/2000/svg" xmlns:xlink="http://www.w3.org/1999/xlink"><g id="_x36__x2C__Video_x2C__Camera_x2C__Ui"><g><path d="M61,371h300v-75v-80v-75H61V371z M146,251h45v-45c0-2.761,2.239-5,5-5s5,2.239,5,5v45h45c2.761,0,5,2.239,5,5    c0,2.762-2.239,5-5,5h-45v45c0,2.762-2.239,5-5,5s-5-2.238-5-5v-45h-45c-2.761,0-5-2.238-5-5C141,253.239,143.239,251,146,251z"/><polygon points="371,218.245 371,293.755 451,364.866 451,147.134"/></g></g><g id="Layer_1"/>
</svg>